<?xml version="1.0" encoding="UTF-8" standalone="no"?>
<svg
   width="149.39999"
   height="64.260765"
   viewBox="0 0 149.39999 64.260767"
   version="1.1"
   id="svg76"
   sodipodi:docname="logo-text.svg"
   inkscape:version="1.2.1 (9c6d41e, 2022-07-14)"
   xmlns:inkscape="http://www.inkscape.org/namespaces/inkscape"
   xmlns:sodipodi="http://sodipodi.sourceforge.net/DTD/sodipodi-0.dtd"
   xmlns="http://www.w3.org/2000/svg"
   xmlns:svg="http://www.w3.org/2000/svg">
  <sodipodi:namedview
     id="namedview78"
     pagecolor="#505050"
     bordercolor="#eeeeee"
     borderopacity="1"
     inkscape:showpageshadow="0"
     inkscape:pageopacity="0"
     inkscape:pagecheckerboard="0"
     inkscape:deskcolor="#505050"
     showgrid="false"
     inkscape:zoom="2.0230075"
     inkscape:cx="53.63302"
     inkscape:cy="32.130381"
     inkscape:window-width="1309"
     inkscape:window-height="484"
     inkscape:window-x="0"
     inkscape:window-y="0"
     inkscape:window-maximized="0"
     inkscape:current-layer="svg76" />
  <defs
     id="defs65">
    <filter
       id="Path_2277"
       x="12.435"
       y="0"
       width="93.245003"
       height="116.658"
       filterUnits="userSpaceOnUse">
      <feOffset
         input="SourceAlpha"
         id="feOffset54" />
      <feGaussianBlur
         stdDeviation="10"
         result="blur"
         id="feGaussianBlur56" />
      <feFlood
         flood-color="#fff"
         flood-opacity="0.478"
         id="feFlood58" />
      <feComposite
         operator="in"
         in2="blur"
         id="feComposite60"
         result="result1" />
      <feComposite
         in="SourceGraphic"
         in2="result1"
         id="feComposite62" />
    </filter>
    <clipPath
       clipPathUnits="userSpaceOnUse"
       id="clipPath2836">
      <rect
         style="fill:none;fill-rule:evenodd;stroke-width:0.909959"
         id="rect2838"
         width="173.00974"
         height="64.260765"
         x="1632.5781"
         y="17.797619" />
    </clipPath>
  </defs>
  <g
     id="Group_3296"
     data-name="Group 3296"
     transform="translate(-1665.4497,-17.797619)"
     clip-path="url(#clipPath2836)">
    <path
       id="Path_1981"
       data-name="Path 1981"
       d="m 12.1,43.37 c 0,0.616 -0.292,0.689 -0.695,0.689 H 8.043 c -1.17,0 -1.974,0.724 -1.974,2.39 V 58.178 A 0.669,0.669 0 0 1 5.374,58.867 H 0.695 A 0.669,0.669 0 0 1 0,58.178 v -12.6 c 0,-4.236 2.559,-6.916 6.545,-6.916 h 4.863 a 0.669,0.669 0 0 1 0.695,0.689 z"
       transform="translate(1665.45,0.787)"
       fill="#333333" />
    <path
       id="Path_1982"
       data-name="Path 1982"
       d="m 54.961,39.351 v 18.827 a 0.669,0.669 0 0 1 -0.695,0.689 H 43.151 c -3.949,0 -6.728,-1.956 -6.728,-6.879 V 39.351 a 0.613,0.613 0 0 1 0.621,-0.689 h 4.644 a 0.669,0.669 0 0 1 0.694,0.689 v 11.368 c 0,1.738 0.951,2.643 2.3,2.643 H 49 V 39.351 a 0.613,0.613 0 0 1 0.622,-0.689 h 4.644 a 0.669,0.669 0 0 1 0.695,0.689"
       transform="translate(1644.384,0.788)"
       fill="#333333" />
    <path
       id="Path_1983"
       data-name="Path 1983"
       d="m 96.388,47.545 h -2.669 c -3.912,0 -5.7,-2.063 -5.7,-5.937 V 19.774 a 0.669,0.669 0 0 1 0.695,-0.687 h 4.68 a 0.668,0.668 0 0 1 0.695,0.687 v 20.239 c 0,1.485 0.695,2.1 1.646,2.1 h 0.658 c 0.4,0 0.695,0.073 0.695,0.689 v 4.054 a 0.669,0.669 0 0 1 -0.695,0.689"
       transform="translate(1614.545,12.109)"
       fill="#333333" />
    <path
       id="Path_1984"
       data-name="Path 1984"
       d="m 128.823,43.37 c 0,0.616 -0.292,0.689 -0.695,0.689 h -3.365 c -1.17,0 -1.974,0.724 -1.974,2.39 v 11.729 a 0.669,0.669 0 0 1 -0.695,0.689 h -4.68 a 0.669,0.669 0 0 1 -0.695,-0.689 v -12.6 c 0,-4.236 2.559,-6.916 6.545,-6.916 h 4.863 a 0.669,0.669 0 0 1 0.695,0.689 z"
       transform="translate(1597.943,0.787)"
       fill="#333333" />
    <path
       id="Path_1985"
       data-name="Path 1985"
       d="m 162.9,43.37 c 0,0.616 -0.292,0.689 -0.695,0.689 h -3.365 c -1.17,0 -1.974,0.724 -1.974,2.39 v 11.729 a 0.669,0.669 0 0 1 -0.695,0.689 h -4.68 a 0.669,0.669 0 0 1 -0.695,-0.689 v -12.6 c 0,-4.236 2.559,-6.916 6.545,-6.916 h 4.859 a 0.669,0.669 0 0 1 0.695,0.689 z"
       transform="translate(1578.236,0.787)"
       fill="#333333" />
    <g
       transform="translate(1665.45,-8.4)"
       filter="url(#Path_2277)"
       id="g73">
      <path
         id="Path_2277-2"
         data-name="Path 2277"
         d="m 549.377,56.659 a 1.926,1.926 0 0 1 -1.91,-1.937 V 37.8 a 1.951,1.951 0 0 1 0.916,-1.653 L 561.051,28.331 548.382,20.5 a 1.951,1.951 0 0 1 -0.915,-1.652 V 1.938 a 1.926,1.926 0 0 1 1.91,-1.938 1.883,1.883 0 0 1 0.984,0.282 l 24.072,14.771 a 15.485,15.485 0 0 1 3.607,3.013 12.168,12.168 0 0 1 1.007,1.325 l 0.377,0.623 a 10.609,10.609 0 0 1 0.729,1.583 9.3,9.3 0 0 1 0.558,3.147 v 7.162 c 0,3.7 -2.286,7.228 -6.273,9.685 l -24.077,14.786 a 1.885,1.885 0 0 1 -0.984,0.282 z m 2.53,-6.5 20.228,-12.419 c 2.628,-1.619 4.136,-3.746 4.136,-5.833 v -7.163 a 4.4,4.4 0 0 0 -0.031,-0.511 l -24.333,15.013 z m 13.413,-24.464 8.7,-5.365 a 12.113,12.113 0 0 0 -1.892,-1.423 L 551.907,6.5 v 10.9 z"
         transform="translate(-505.03,30)"
         fill="#3fd3f1"
         opacity="0" />
    </g>
  </g>
</svg>
